<?xml version="1.0" standalone="no"?>
<svg viewBox="0 0 200 200" xmlns="http://www.w3.org/2000/svg">
  <path fill="#FF724C" d="M48.2,-65.4C57.6,-59.5,57,-38.9,62.3,-20.7C67.6,-2.5,78.7,13.4,73.5,22.2C68.4,31.1,46.8,32.9,31.8,41.2C16.8,49.4,8.4,64.1,-4.2,69.8C-16.7,75.5,-33.5,72.3,-47.4,63.7C-61.3,55.1,-72.4,41.1,-70.3,27.6C-68.2,14,-52.9,0.9,-47.1,-14.9C-41.4,-30.7,-45.3,-49.2,-39,-56.1C-32.8,-62.9,-16.4,-58.2,1.5,-60.3C19.4,-62.4,38.8,-71.2,48.2,-65.4Z" transform="translate(100 100)" />
</svg>
