<svg width="34" height="34" viewBox="0 0 34 34" fill="none" xmlns="http://www.w3.org/2000/svg">
<path fill-rule="evenodd" clip-rule="evenodd" d="M17 33.5278C7.87195 33.5278 0.472229 26.1281 0.472229 17C0.472229 7.87194 7.87195 0.472221 17 0.472221C26.1281 0.472221 33.5278 7.87194 33.5278 17C33.5278 26.1281 26.1281 33.5278 17 33.5278ZM17 2.0463C8.74163 2.0463 2.0463 8.74162 2.0463 17C2.0463 25.2584 8.74163 31.9537 17 31.9537C25.2584 31.9537 31.9537 25.2584 31.9537 17C31.9537 8.74162 25.2584 2.0463 17 2.0463ZM29.5926 17.787H28.8056C28.3703 17.787 28.0185 17.4352 28.0185 17C28.0185 16.5648 28.3703 16.213 28.8056 16.213H29.5926C30.0278 16.213 30.3796 16.5648 30.3796 17C30.3796 17.4352 30.0278 17.787 29.5926 17.787ZM24.8538 24.2439C24.8287 24.3918 24.7633 24.5327 24.6484 24.6484C24.406 24.89 24.0487 24.9278 23.7599 24.7838L23.8055 24.8302L23.8118 24.8365C23.6843 24.7838 23.571 24.7342 23.4466 24.6831C19.3627 22.9815 16.9827 21.6482 15.6809 20.7967C14.6476 20.1214 14.2839 19.7475 14.269 19.7318C14.2336 19.698 12.3108 17.8335 9.16505 10.189H9.16584C9.16584 10.189 9.16584 10.189 9.16505 10.189L9.21778 10.2417C9.20991 10.226 9.20834 10.2087 9.20204 10.1929C9.12964 10.0261 9.12177 9.84426 9.17214 9.67268C9.20677 9.55699 9.2595 9.44444 9.35237 9.35236C9.58769 9.11704 9.9332 9.0769 10.2189 9.20991C10.226 9.21305 10.2346 9.21384 10.2409 9.21778L10.2228 9.1981L10.189 9.16505C10.189 9.16505 10.189 9.16505 10.1898 9.16505H10.189C17.8335 12.3108 19.698 14.2336 19.7318 14.269C19.7672 14.3028 21.69 16.1681 24.8357 23.8118L24.835 23.811C24.8357 23.811 24.8357 23.8118 24.8357 23.8118L24.8011 23.7772L24.783 23.7599C24.8011 23.7969 24.8082 23.8362 24.8208 23.8748C24.8594 23.9952 24.8751 24.1203 24.8538 24.2439ZM18.6103 15.3732C18.5938 15.3567 17.0236 13.8566 11.3798 11.3806C13.8558 17.0244 15.3582 18.5953 15.3897 18.6276C15.4063 18.6441 16.9764 20.145 22.6202 22.6202C20.1442 16.9756 18.6418 15.4055 18.6103 15.3732ZM17 16.213C17.4352 16.213 17.787 16.5648 17.787 17C17.787 17.4352 17.4352 17.787 17 17.787C16.5648 17.787 16.213 17.4352 16.213 17C16.213 16.5648 16.5648 16.213 17 16.213ZM17 5.98148C16.5648 5.98148 16.213 5.62889 16.213 5.19444V4.40741C16.213 3.97296 16.5648 3.62037 17 3.62037C17.4352 3.62037 17.787 3.97296 17.787 4.40741V5.19444C17.787 5.62889 17.4352 5.98148 17 5.98148ZM17 28.0185C17.4352 28.0185 17.787 28.3703 17.787 28.8056V29.5926C17.787 30.0278 17.4352 30.3796 17 30.3796C16.5648 30.3796 16.213 30.0278 16.213 29.5926V28.8056C16.213 28.3703 16.5648 28.0185 17 28.0185ZM5.19445 17.787H4.40741C3.97218 17.787 3.62038 17.4352 3.62038 17C3.62038 16.5648 3.97218 16.213 4.40741 16.213H5.19445C5.62968 16.213 5.98149 16.5648 5.98149 17C5.98149 17.4352 5.62968 17.787 5.19445 17.787Z" fill="white"/>
</svg>
