<svg width="276" height="236" viewBox="0 0 276 236" fill="none" xmlns="http://www.w3.org/2000/svg">
<path d="M261.445 112.761C261.445 162.109 230.008 204.051 186.224 219.338C168.6 225.457 149.745 227.067 131.352 224.023C129.606 223.736 127.873 223.406 126.152 223.033C123.821 222.534 121.517 221.959 119.24 221.31C72.233 207.97 37.7794 164.422 37.7794 112.761C37.7794 50.4843 87.8484 0 149.612 0C211.376 0 261.445 50.4843 261.445 112.761Z" fill="#F6F6F9"/>
<path d="M61.4289 126.513C61.1804 126.647 60.9948 126.875 60.9128 127.146C60.8308 127.418 60.8592 127.712 60.9918 127.962L114.069 228.115C114.202 228.365 114.428 228.552 114.698 228.635C114.967 228.717 115.258 228.689 115.507 228.555L190.537 188.2C190.785 188.066 190.971 187.838 191.053 187.566C191.135 187.294 191.106 187.001 190.974 186.75L137.897 86.5976C137.764 86.3472 137.538 86.1602 137.268 86.0776C136.998 85.9951 136.707 86.0237 136.458 86.1572L61.4289 126.513Z" fill="#3F3D56"/>
<path d="M68.4031 129.439L116.974 221.088L183.562 185.273L134.992 93.6236L68.4031 129.439ZM64.1837 131.709L64.193 131.704L64.1826 131.709L64.1837 131.709Z" fill="white"/>
<path d="M85.1925 139.515C84.158 140.072 83.9378 141.696 84.7008 143.136C85.4638 144.575 86.926 145.295 87.9605 144.738L136.73 118.507C137.764 117.951 137.984 116.326 137.221 114.887C136.458 113.447 134.996 112.728 133.962 113.284L85.1925 139.515Z" fill="#FDBF50"/>
<path d="M91.2012 150.853C90.1667 151.41 89.9465 153.034 90.7095 154.474C91.4724 155.913 92.9346 156.633 93.9691 156.076L142.738 129.845C143.773 129.289 143.993 127.664 143.23 126.225C142.467 124.785 141.005 124.066 139.97 124.622L91.2012 150.853Z" fill="#FDBF50"/>
<path d="M97.2099 162.191C96.1754 162.748 95.9552 164.372 96.7181 165.812C97.4811 167.251 98.9433 167.971 99.9778 167.414L148.747 141.183C149.781 140.627 150.002 139.002 149.239 137.563C148.476 136.123 147.013 135.404 145.979 135.96L97.2099 162.191Z" fill="#FDBF50"/>
<path d="M103.219 173.529C102.184 174.086 101.964 175.71 102.727 177.15C103.49 178.589 104.952 179.309 105.987 178.752L154.756 152.521C155.79 151.965 156.01 150.34 155.247 148.901C154.484 147.461 153.022 146.742 151.988 147.298L103.219 173.529Z" fill="#FDBF50"/>
<path d="M109.227 184.867C108.193 185.424 107.973 187.048 108.736 188.488C109.499 189.927 110.961 190.647 111.995 190.09L160.764 163.859C161.799 163.303 162.019 161.678 161.256 160.239C160.493 158.799 159.031 158.08 157.996 158.636L109.227 184.867Z" fill="#FDBF50"/>
<path d="M118.698 83.2432L162.888 85.9617L175.264 48.7806L136.504 40.5302L118.698 83.2432Z" fill="#2F2E41"/>
<path d="M150.568 73.8413C160.329 73.8413 168.242 65.8697 168.242 56.0363C168.242 46.2028 160.329 38.2312 150.568 38.2312C140.807 38.2312 132.894 46.2028 132.894 56.0363C132.894 65.8697 140.807 73.8413 150.568 73.8413Z" fill="#FFB8B8"/>
<path d="M195.952 215.654L196.067 217.039C173.819 224.757 150.018 226.787 126.799 222.949L120.235 221.7L126.481 207.745L130.575 198.598L129.101 166.953L128.945 163.678L128.752 159.5L131.419 159.485L150.381 159.369L168.452 159.254L171.208 159.238C188.487 180.65 202.745 198.052 195.952 215.654Z" fill="#2F2E41"/>
<path d="M170.947 158.976L128.752 163.699L127.189 134.31C122.237 121.587 125.506 110.23 135.784 100.039L137.873 91.7071C138.421 89.5203 139.554 87.5267 141.149 85.9434C142.743 84.3601 144.738 83.2475 146.917 82.7267C153.824 78.736 161.648 76.8339 170.426 77.1068C173.932 78.4859 176.905 80.9645 178.905 84.1762C180.906 87.388 181.828 91.1628 181.535 94.943C179.719 118.039 176.46 139.659 170.947 158.976Z" fill="#FDBF50"/>
<path d="M137.198 34.9997C137.198 34.9997 128.059 38.3594 127.824 50.574C127.811 52.6294 128.084 54.6766 128.634 56.656C129.226 58.9009 129.702 63.7717 125.717 70.2646C123.113 74.4791 120.759 78.845 118.667 83.3395L128.957 84.3398L130.658 67.1553C131.483 58.8238 133.521 50.6601 136.707 42.9268L136.773 42.7654C136.773 42.7654 141.494 51.0312 150.466 50.7765L147.172 47.6394C147.172 47.6394 158.409 51.9027 164.52 52.7586C165.217 52.8565 165.875 53.1441 166.422 53.5906C166.969 54.0371 167.385 54.6255 167.625 55.2924C167.864 55.9594 167.919 56.6796 167.783 57.3755C167.646 58.0714 167.324 58.7166 166.85 59.2416C166.814 59.2811 166.778 59.3208 166.74 59.3606C163.004 63.3434 155.566 72.6004 160.251 79.5749C164.935 86.5495 161.144 88.5955 161.144 88.5955L168.085 84.5217L171.236 82.4939L171.308 85.0763L187.916 82.6666C187.916 82.6666 192.384 81.8937 182.464 71.1909C182.464 71.1909 179.807 67.0008 180.814 63.2932C181.649 60.4735 181.805 57.4944 181.271 54.6016C178.779 42.5595 169.657 18.7363 137.198 34.9997Z" fill="#2F2E41"/>
<path d="M141.254 109.12L140.713 112.499L135.003 147.955L131.419 159.485L130.159 163.541L129.101 166.953L116.25 208.307L112.724 216.653C110.789 217.373 109.127 218.685 107.968 220.405C106.81 222.125 106.214 224.166 106.264 226.243C106.314 228.321 107.008 230.331 108.247 231.992C109.487 233.653 111.21 234.882 113.177 235.508C115.144 236.134 117.256 236.124 119.218 235.481C121.179 234.838 122.893 233.594 124.118 231.922C125.343 230.25 126.018 228.234 126.05 226.156C126.082 224.078 125.469 222.042 124.295 220.333L149.449 161.384L150.381 159.369L153.236 153.203L158.627 112.221L158.966 109.644L141.254 109.12Z" fill="#FFB8B8"/>
<path d="M162.092 113.318C153.905 110.354 146.051 110.039 138.65 113.318L141.066 92.2235C140.977 89.5893 141.918 87.0252 143.686 85.0827C145.455 83.1401 147.909 81.9742 150.522 81.8357C153.167 81.6955 155.758 82.6195 157.727 84.4045C159.696 86.1895 160.88 88.6892 161.019 91.3538L161.021 91.3884L162.092 113.318Z" fill="#FDBF50"/>
<path d="M5.6339 124.612C5.50047 124.648 5.38665 124.736 5.31743 124.856C5.2482 124.977 5.22921 125.12 5.26464 125.254L19.4809 179.008C19.5166 179.143 19.6037 179.257 19.7233 179.327C19.8428 179.397 19.9849 179.416 20.1184 179.38L60.3879 168.571C60.5213 168.535 60.6351 168.447 60.7044 168.327C60.7736 168.207 60.7926 168.063 60.7571 167.929L46.5409 114.175C46.5052 114.041 46.4181 113.926 46.2986 113.856C46.179 113.787 46.0369 113.768 45.9034 113.803L5.6339 124.612Z" fill="#FDBF50"/>
<path d="M15.5291 133.49C14.9739 133.639 14.6887 134.389 14.893 135.162C15.0974 135.934 15.7152 136.442 16.2704 136.293L42.4456 129.267C43.0009 129.118 43.286 128.368 43.0817 127.595C42.8773 126.823 42.2595 126.315 41.7043 126.464L15.5291 133.49Z" fill="white"/>
<path d="M17.1385 139.575C16.5832 139.724 16.2981 140.474 16.5024 141.247C16.7068 142.02 17.3246 142.527 17.8798 142.378L44.055 135.352C44.6102 135.203 44.8954 134.453 44.6911 133.681C44.4867 132.908 43.8689 132.4 43.3136 132.549L17.1385 139.575Z" fill="white"/>
<path d="M18.748 145.66C18.1927 145.809 17.9076 146.56 18.1119 147.332C18.3162 148.105 18.9341 148.613 19.4893 148.464L45.6645 141.438C46.2198 141.289 46.5049 140.539 46.3006 139.766C46.0962 138.993 45.4784 138.486 44.9232 138.635L18.748 145.66Z" fill="white"/>
<path d="M20.3572 151.746C19.802 151.895 19.5168 152.645 19.7212 153.418C19.9255 154.19 20.5433 154.698 21.0986 154.549L47.2738 147.523C47.829 147.374 48.1142 146.624 47.9098 145.851C47.7055 145.079 47.0876 144.571 46.5324 144.72L20.3572 151.746Z" fill="white"/>
<path d="M21.9667 157.831C21.4115 157.98 21.1263 158.73 21.3307 159.503C21.535 160.276 22.1528 160.783 22.7081 160.634L48.8833 153.608C49.4385 153.459 49.7237 152.709 49.5193 151.937C49.315 151.164 48.6971 150.656 48.1419 150.805L21.9667 157.831Z" fill="white"/>
<path d="M23.5761 163.916C23.0209 164.065 22.7357 164.816 22.94 165.588C23.1444 166.361 23.7622 166.869 24.3175 166.72L50.4927 159.694C51.0479 159.545 51.3331 158.795 51.1287 158.022C50.9244 157.249 50.3065 156.742 49.7513 156.891L23.5761 163.916Z" fill="white"/>
<path d="M0.814339 63.4017C0.692566 63.4674 0.601621 63.579 0.561466 63.7122C0.521311 63.8453 0.535224 63.9891 0.600152 64.1119L26.6067 113.185C26.6719 113.307 26.7827 113.399 26.9149 113.439C27.047 113.48 27.1897 113.466 27.3116 113.4L64.0745 93.627C64.1963 93.5613 64.2872 93.4497 64.3274 93.3165C64.3675 93.1834 64.3536 93.0396 64.2887 92.9168L38.2821 43.844C38.2169 43.7214 38.1061 43.6298 37.9739 43.5893C37.8418 43.5488 37.6991 43.5629 37.5772 43.6283L0.814339 63.4017Z" fill="#E6E6E6"/>
<path d="M4.23152 64.8357L28.0302 109.741L60.6572 92.1929L36.8586 47.2867L4.23152 64.8357ZM2.16408 65.9475L2.16866 65.9452L2.16357 65.9478L2.16408 65.9475Z" fill="white"/>
<path d="M12.458 69.7727C11.9511 70.0453 11.8432 70.8411 12.217 71.5465C12.5909 72.2519 13.3073 72.6044 13.8142 72.3317L37.7101 59.479C38.2169 59.2063 38.3249 58.4105 37.951 57.7051C37.5772 56.9997 36.8607 56.6473 36.3539 56.9199L12.458 69.7727Z" fill="#FDBF50"/>
<path d="M15.4022 75.3281C14.8954 75.6007 14.7874 76.3966 15.1613 77.1019C15.5351 77.8073 16.2516 78.1598 16.7584 77.8871L40.6543 65.0344C41.1611 64.7617 41.2691 63.9659 40.8952 63.2605C40.5214 62.5551 39.8049 62.2027 39.2981 62.4753L15.4022 75.3281Z" fill="#FDBF50"/>
<path d="M18.3463 80.8835C17.8394 81.1561 17.7315 81.952 18.1053 82.6574C18.4792 83.3628 19.1957 83.7152 19.7025 83.4426L43.5984 70.5898C44.1053 70.3172 44.2132 69.5213 43.8394 68.8159C43.4656 68.1105 42.7491 67.7581 42.2422 68.0307L18.3463 80.8835Z" fill="#FDBF50"/>
<path d="M21.2905 86.4389C20.7837 86.7115 20.6757 87.5074 21.0496 88.2127C21.4234 88.9181 22.1399 89.2706 22.6467 88.9979L46.5426 76.1452C47.0495 75.8726 47.1574 75.0767 46.7836 74.3713C46.4097 73.6659 45.6932 73.3135 45.1864 73.5861L21.2905 86.4389Z" fill="#FDBF50"/>
<path d="M24.2346 91.9943C23.7277 92.2669 23.6198 93.0628 23.9937 93.7682C24.3675 94.4736 25.084 94.826 25.5908 94.5534L49.4867 81.7006C49.9936 81.428 50.1015 80.6321 49.7277 79.9267C49.3538 79.2214 48.6374 78.8689 48.1305 79.1415L24.2346 91.9943Z" fill="#FDBF50"/>
<path d="M27.1788 97.5496C26.672 97.8223 26.564 98.6181 26.9379 99.3235C27.3117 100.029 28.0282 100.381 28.535 100.109L52.4309 87.256C52.9378 86.9833 53.0457 86.1875 52.6719 85.4821C52.2981 84.7767 51.5816 84.4243 51.0747 84.6969L27.1788 97.5496Z" fill="#FDBF50"/>
<path d="M239.814 163.376C239.695 163.306 239.553 163.285 239.419 163.32C239.285 163.355 239.17 163.441 239.1 163.561L211.008 211.453C210.937 211.573 210.917 211.716 210.952 211.85C210.986 211.985 211.072 212.101 211.191 212.172L247.069 233.531C247.188 233.602 247.33 233.622 247.464 233.587C247.597 233.553 247.712 233.466 247.783 233.346L275.875 185.455C275.945 185.335 275.965 185.192 275.931 185.057C275.896 184.922 275.81 184.807 275.692 184.736L239.814 163.376Z" fill="#E6E6E6"/>
<path d="M240.374 167.063L214.667 210.888L246.508 229.845L272.216 186.019L240.374 167.063ZM238.356 165.861L238.361 165.864L238.356 165.861L238.356 165.861Z" fill="white"/>
<path d="M240.464 176.709C239.969 176.414 239.238 176.735 238.835 177.424C238.431 178.112 238.504 178.912 238.999 179.206L262.32 193.09C262.814 193.385 263.545 193.064 263.949 192.375C264.353 191.687 264.28 190.887 263.785 190.593L240.464 176.709Z" fill="#FDBF50"/>
<path d="M237.284 182.131C236.789 181.836 236.058 182.157 235.654 182.845C235.251 183.534 235.324 184.334 235.819 184.628L259.14 198.512C259.634 198.806 260.365 198.485 260.769 197.797C261.173 197.109 261.099 196.309 260.605 196.014L237.284 182.131Z" fill="#FDBF50"/>
<path d="M234.104 187.552C233.609 187.258 232.878 187.579 232.474 188.267C232.07 188.955 232.144 189.755 232.639 190.05L255.959 203.933C256.454 204.228 257.185 203.907 257.589 203.219C257.993 202.53 257.919 201.73 257.424 201.436L234.104 187.552Z" fill="#FDBF50"/>
<path d="M230.923 192.974C230.428 192.679 229.698 193 229.294 193.689C228.89 194.377 228.963 195.177 229.458 195.472L252.779 209.355C253.274 209.65 254.004 209.329 254.408 208.64C254.812 207.952 254.739 207.152 254.244 206.858L230.923 192.974Z" fill="#FDBF50"/>
<path d="M227.743 198.396C227.248 198.101 226.517 198.422 226.114 199.11C225.71 199.799 225.783 200.599 226.278 200.893L249.599 214.777C250.093 215.071 250.824 214.75 251.228 214.062C251.632 213.374 251.558 212.574 251.064 212.279L227.743 198.396Z" fill="#FDBF50"/>
<path d="M224.563 203.817C224.068 203.523 223.337 203.844 222.933 204.532C222.529 205.221 222.603 206.02 223.098 206.315L246.418 220.199C246.913 220.493 247.644 220.172 248.048 219.484C248.452 218.795 248.378 217.995 247.883 217.701L224.563 203.817Z" fill="#FDBF50"/>
</svg>
