<svg width="280" height="289" viewBox="0 0 280 289" fill="none" xmlns="http://www.w3.org/2000/svg">
<path d="M79.4004 80.4184L70.9857 85.9327L158.621 219.434L167.036 213.919L79.4004 80.4184Z" fill="#E6E6E6"/>
<path d="M59.3672 30.1784L78.8363 59.8369C79.2133 60.4113 79.3465 61.1117 79.2066 61.7842C79.0668 62.4567 78.6652 63.0462 78.0904 63.4229C77.5156 63.7995 76.8145 63.9327 76.1414 63.7929C75.4683 63.6531 74.8784 63.252 74.5014 62.6776L52.1194 28.5815C49.0814 28.328 46.0277 28.8291 43.2304 30.0401L67.6166 67.1893C67.9933 67.7636 68.1264 68.464 67.9864 69.1363C67.8465 69.8086 67.445 70.3979 66.8703 70.7745C66.2955 71.1511 65.5946 71.2843 64.9217 71.1446C64.2487 71.005 63.6588 70.6041 63.2817 70.0299L38.8955 32.8808C36.6693 34.9617 34.9927 37.5604 34.0149 40.4455L56.3969 74.5416C56.7737 75.116 56.9067 75.8163 56.7667 76.4886C56.6268 77.161 56.2253 77.7502 55.6506 78.1269C55.0759 78.5035 54.375 78.6366 53.702 78.497C53.029 78.3574 52.4391 77.9564 52.062 77.3823L32.593 47.7237C32.0929 55.9933 34.7915 65.7948 40.7055 74.8042C51.697 91.5483 69.6264 99.2119 80.7519 91.9214C91.8773 84.6308 91.9859 65.1467 80.9944 48.4026C75.0803 39.3933 67.1578 33.015 59.3672 30.1784Z" fill="#E6E6E6"/>
<path d="M117.129 62.1552H107.066V221.809H117.129V62.1552Z" fill="#E6E6E6"/>
<path d="M111.945 72.5143C125.25 72.5143 136.036 56.2815 136.036 36.2572C136.036 16.2329 125.25 0 111.945 0C98.6401 0 87.8544 16.2329 87.8544 36.2572C87.8544 56.2815 98.6401 72.5143 111.945 72.5143Z" fill="#E6E6E6"/>
<path d="M111.945 66.089C122.892 66.089 131.766 52.7328 131.766 36.2571C131.766 19.7815 122.892 6.42529 111.945 6.42529C100.998 6.42529 92.1236 19.7815 92.1236 36.2571C92.1236 52.7328 100.998 66.089 111.945 66.089Z" fill="#CCCCCC"/>
<path d="M140 230C201.304 230 251 227.151 251 223.637C251 220.122 201.304 217.273 140 217.273C78.6964 217.273 29 220.122 29 223.637C29 227.151 78.6964 230 140 230Z" fill="#F4F4F8"/>
<path d="M205.645 223.543C164.046 216.052 121.443 216.052 79.8442 223.543C79.1834 223.663 78.5044 223.636 77.8551 223.465C77.2057 223.294 76.6019 222.982 76.0863 222.552C75.5706 222.123 75.1556 221.585 74.8706 220.977C74.5856 220.37 74.4375 219.707 74.4368 219.036V162.091H211.052V219.036C211.051 219.707 210.903 220.37 210.618 220.977C210.333 221.585 209.918 222.123 209.403 222.552C208.887 222.982 208.283 223.294 207.634 223.465C206.985 223.636 206.306 223.663 205.645 223.543Z" fill="#FDBF50"/>
<path d="M198.549 120.045C195.395 120.042 192.262 120.566 189.281 121.594C184.932 112.17 177.982 104.18 169.248 98.563C160.514 92.9459 150.358 89.9344 139.971 89.8819C129.584 89.8295 119.398 92.7383 110.607 98.2669C101.817 103.796 94.787 111.715 90.343 121.095C85.967 119.868 81.36 119.711 76.9103 120.635C72.4605 121.559 68.2982 123.538 64.774 126.406C61.2497 129.273 58.4668 132.945 56.6597 137.111C54.8525 141.278 54.074 145.817 54.3898 150.347C54.7055 154.877 56.1063 159.265 58.474 163.141C60.8418 167.017 64.1072 170.268 67.9952 172.62C71.8832 174.971 76.2799 176.355 80.8149 176.654C85.3499 176.953 89.8905 176.159 94.0541 174.338C99.0584 181.957 105.894 188.202 113.935 192.502C121.977 196.803 130.969 199.022 140.09 198.956C149.21 198.89 158.169 196.543 166.148 192.127C174.127 187.712 180.872 181.369 185.766 173.679C189.589 175.607 193.8 176.646 198.083 176.716C202.365 176.786 206.608 175.886 210.493 174.084C214.378 172.281 217.803 169.623 220.513 166.309C223.222 162.994 225.146 159.11 226.138 154.947C227.13 150.784 227.166 146.451 226.242 142.272C225.319 138.093 223.46 134.177 220.805 130.819C218.15 127.461 214.769 124.747 210.915 122.881C207.06 121.015 202.833 120.045 198.549 120.045Z" fill="#FDBF50"/>
<path d="M85.4148 144.419H84.8049C84.7841 136.306 86.5812 128.292 90.0643 120.963L90.6156 121.224C87.1712 128.471 85.3941 136.397 85.4148 144.419Z" fill="#3F3D56"/>
<path d="M194.585 144.419H193.975C193.994 136.582 192.298 128.834 189.007 121.72L189.56 121.465C192.889 128.659 194.604 136.493 194.585 144.419Z" fill="#3F3D56"/>
<path d="M74.5104 188.589L74.3633 187.998C74.5354 187.955 91.8681 183.702 117.269 181.591C140.714 179.644 176.028 179.174 211.127 187.998L210.978 188.589C175.965 179.787 140.728 180.255 117.333 182.198C91.977 184.303 74.6821 188.547 74.5104 188.589Z" fill="#3F3D56"/>
<path d="M74.5104 196.816L74.3633 196.224C74.5354 196.182 91.8681 191.928 117.269 189.818C140.714 187.87 176.028 187.4 211.127 196.224L210.978 196.815C175.965 188.013 140.728 188.482 117.333 190.424C91.977 192.53 74.6821 196.773 74.5104 196.816Z" fill="#3F3D56"/>
<path d="M74.5104 205.042L74.3633 204.451C74.5354 204.408 91.8681 200.155 117.269 198.044C140.714 196.097 176.028 195.627 211.127 204.451L210.978 205.042C175.965 196.24 140.728 196.708 117.333 198.651C91.977 200.756 74.6821 205 74.5104 205.042Z" fill="#3F3D56"/>
<path d="M186.738 160.31L179.349 157.8L186.442 121.626L181.566 121.183C176.81 124.828 170.478 126.257 162.355 125.169L175.359 144.807L168.728 149.484L147.575 124.132C146.621 122.99 146.099 121.549 146.099 120.061C146.099 118.682 146.548 117.34 147.378 116.238C148.208 115.136 149.374 114.334 150.701 113.952L173.29 107.451L199.742 110.404C203.742 116.496 203.898 120.733 197.81 121.955L186.738 160.31Z" fill="#2F2E41"/>
<path d="M179.175 174.383C178.412 174.335 177.67 174.107 177.011 173.718C176.351 173.33 175.793 172.792 175.381 172.147C174.969 171.503 174.715 170.77 174.64 170.009C174.564 169.249 174.67 168.481 174.947 167.768L178.62 158.33C180.486 154.799 183.047 155.241 186.071 158.33L187.549 162.661C187.671 163.018 187.719 163.395 187.691 163.771C187.663 164.147 187.559 164.513 187.386 164.848L183.805 171.764C183.371 172.602 182.702 173.297 181.88 173.762C181.058 174.227 180.118 174.442 179.175 174.383Z" fill="#2F2E41"/>
<path d="M169.626 162.024C168.862 161.976 168.121 161.748 167.461 161.36C166.802 160.971 166.244 160.433 165.832 159.789C165.42 159.144 165.166 158.412 165.091 157.651C165.015 156.89 165.12 156.122 165.398 155.409L169.071 145.971C170.937 142.44 173.498 142.882 176.522 145.971L178 150.303C178.121 150.659 178.17 151.037 178.142 151.412C178.114 151.788 178.01 152.154 177.837 152.489L174.256 159.405C173.822 160.244 173.153 160.938 172.331 161.403C171.509 161.868 170.569 162.084 169.626 162.024Z" fill="#2F2E41"/>
<path d="M174.325 72.9009C178.895 72.9009 182.6 69.199 182.6 64.6324C182.6 60.0659 178.895 56.364 174.325 56.364C169.754 56.364 166.049 60.0659 166.049 64.6324C166.049 69.199 169.754 72.9009 174.325 72.9009Z" fill="#FFB9B9"/>
<path d="M187.181 76.297L175.802 82.2029L173.438 71.572L181.27 66.6995L187.181 76.297Z" fill="#FFB9B9"/>
<path d="M200.925 111.881C189.57 108.454 179.268 106.679 171.812 109.371C174.382 102.147 169.639 91.1167 164.423 79.8405C166.674 76.9013 170.262 75.7628 174.325 75.2633C178.77 78.4882 181.869 76.4183 184.226 71.4243C189.365 71.2182 194.318 73.0367 199.151 76.1492C195.373 88.2408 196.053 100.148 200.925 111.881Z" fill="#3F3D56"/>
<path d="M171.665 111.142C169.872 112.198 168.217 113.977 166.64 116.163C163.975 114.533 161.63 112.677 159.783 110.47C158.49 108.905 157.608 107.043 157.218 105.052C156.828 103.06 156.941 101.003 157.548 99.0663L162.598 82.6678C163.017 81.3058 163.832 80.099 164.939 79.2004L165.606 78.6593L172.256 91.2096L165.606 103.612C166.449 105.871 168.934 108.481 171.665 111.142Z" fill="#3F3D56"/>
<path d="M173.954 123.645C173.351 123.92 172.692 124.051 172.03 124.027C171.368 124.003 170.72 123.826 170.138 123.509C169.556 123.193 169.056 122.745 168.678 122.202C168.299 121.658 168.052 121.035 167.956 120.379L166.857 112.862L170.699 110.794L175.576 117.173C175.965 117.682 176.235 118.273 176.364 118.9C176.494 119.528 176.481 120.177 176.325 120.799C176.169 121.421 175.875 122 175.464 122.493C175.054 122.985 174.537 123.379 173.954 123.645Z" fill="#FFB9B9"/>
<path d="M182.674 64.2706L181.261 64.3125L177.342 58.7651C172.319 59.2838 168.204 61.464 164.721 64.8034L164.368 62.4513C164.031 60.2083 164.568 57.9217 165.867 56.0618C167.166 54.2018 169.129 52.91 171.352 52.452H171.352C172.52 52.2114 173.724 52.2084 174.893 52.4432C176.062 52.678 177.172 53.1458 178.156 53.8185C179.14 54.4913 179.978 55.3553 180.621 56.3589C181.263 57.3626 181.696 58.4852 181.895 59.6599L182.674 64.2706Z" fill="#2F2E41"/>
<path d="M166.783 116.166C166.508 115.563 166.377 114.905 166.401 114.244C166.424 113.582 166.602 112.935 166.919 112.354C167.236 111.772 167.684 111.273 168.228 110.894C168.771 110.516 169.396 110.269 170.051 110.173L177.576 109.075L179.645 112.914L173.261 117.786C172.751 118.176 172.16 118.445 171.532 118.575C170.903 118.704 170.254 118.69 169.631 118.535C169.009 118.379 168.43 118.085 167.936 117.675C167.443 117.265 167.049 116.749 166.783 116.166Z" fill="#FFB9B9"/>
<path d="M202.358 109.327C195.2 109.883 187.384 112.113 179.201 115.277C179.1 112.85 178.219 110.52 176.689 108.632C184.121 106.677 190.864 104.382 195.014 100.807L192.501 81.9076L197.969 75.7062L198.912 76.1978C199.696 76.6045 200.385 77.1712 200.935 77.861C201.485 78.5509 201.883 79.3486 202.105 80.2024C204.413 89.1749 205.439 97.7718 204.734 105.862C204.825 106.629 204.634 107.403 204.197 108.04C203.761 108.678 203.107 109.135 202.358 109.327Z" fill="#3F3D56"/>
<path d="M58.24 221.843C51.5823 226.003 44.9246 226.001 38.2669 221.837C38.0562 221.708 37.885 221.523 37.772 221.303C37.6591 221.083 37.6086 220.836 37.6261 220.589L39.7036 193.606H56.5062L58.8795 220.58C58.9 220.829 58.8511 221.079 58.7382 221.301C58.6253 221.524 58.4529 221.712 58.24 221.843Z" fill="#3F3D56"/>
<path d="M48.0273 196.964C52.71 196.964 56.5061 195.597 56.5061 193.911C56.5061 192.226 52.71 190.859 48.0273 190.859C43.3446 190.859 39.5485 192.226 39.5485 193.911C39.5485 195.597 43.3446 196.964 48.0273 196.964Z" fill="#3F3D56"/>
<path d="M54.6731 192.881C50.255 195.986 45.978 195.986 41.842 192.881V187.997H54.6731V192.881Z" fill="#FDBF50"/>
<path d="M48.2576 190.439C51.8008 190.439 54.6731 189.346 54.6731 187.997C54.6731 186.649 51.8008 185.555 48.2576 185.555C44.7144 185.555 41.842 186.649 41.842 187.997C41.842 189.346 44.7144 190.439 48.2576 190.439Z" fill="#FDBF50"/>
<path d="M48.5631 187.997C48.9005 187.997 49.1741 187.861 49.1741 187.692C49.1741 187.523 48.9005 187.387 48.5631 187.387C48.2256 187.387 47.9521 187.523 47.9521 187.692C47.9521 187.861 48.2256 187.997 48.5631 187.997Z" fill="#E6E6E6"/>
<path d="M51.4482 187.997C51.7857 187.997 52.0592 187.861 52.0592 187.692C52.0592 187.523 51.7857 187.387 51.4482 187.387C51.1108 187.387 50.8372 187.523 50.8372 187.692C50.8372 187.861 51.1108 187.997 51.4482 187.997Z" fill="#E6E6E6"/>
<path d="M50.0057 188.718C50.3431 188.718 50.6167 188.581 50.6167 188.413C50.6167 188.244 50.3431 188.107 50.0057 188.107C49.6682 188.107 49.3947 188.244 49.3947 188.413C49.3947 188.581 49.6682 188.718 50.0057 188.718Z" fill="#E6E6E6"/>
<path d="M44.2355 188.718C44.5729 188.718 44.8465 188.581 44.8465 188.413C44.8465 188.244 44.5729 188.107 44.2355 188.107C43.898 188.107 43.6245 188.244 43.6245 188.413C43.6245 188.581 43.898 188.718 44.2355 188.718Z" fill="#E6E6E6"/>
<path d="M45.678 187.997C46.0154 187.997 46.289 187.861 46.289 187.692C46.289 187.523 46.0154 187.387 45.678 187.387C45.3405 187.387 45.067 187.523 45.067 187.692C45.067 187.861 45.3405 187.997 45.678 187.997Z" fill="#E6E6E6"/>
<path d="M47.1205 189.078C47.458 189.078 47.7315 188.942 47.7315 188.773C47.7315 188.604 47.458 188.468 47.1205 188.468C46.7831 188.468 46.5095 188.604 46.5095 188.773C46.5095 188.942 46.7831 189.078 47.1205 189.078Z" fill="#E6E6E6"/>
<path d="M242.732 221.843C236.074 226.003 229.416 226.001 222.759 221.837C222.548 221.708 222.377 221.523 222.264 221.303C222.151 221.083 222.1 220.836 222.118 220.589L224.195 193.606H240.998L243.371 220.58C243.392 220.829 243.343 221.079 243.23 221.301C243.117 221.524 242.945 221.712 242.732 221.843Z" fill="#3F3D56"/>
<path d="M232.519 196.964C237.202 196.964 240.998 195.597 240.998 193.911C240.998 192.226 237.202 190.859 232.519 190.859C227.836 190.859 224.04 192.226 224.04 193.911C224.04 195.597 227.836 196.964 232.519 196.964Z" fill="#3F3D56"/>
<path d="M239.165 192.881C234.747 195.986 230.47 195.986 226.334 192.881V187.997H239.165V192.881Z" fill="#FDBF50"/>
<path d="M232.749 190.439C236.293 190.439 239.165 189.346 239.165 187.997C239.165 186.649 236.293 185.555 232.749 185.555C229.206 185.555 226.334 186.649 226.334 187.997C226.334 189.346 229.206 190.439 232.749 190.439Z" fill="#FDBF50"/>
<path d="M233.055 187.997C233.392 187.997 233.666 187.861 233.666 187.692C233.666 187.523 233.392 187.387 233.055 187.387C232.717 187.387 232.444 187.523 232.444 187.692C232.444 187.861 232.717 187.997 233.055 187.997Z" fill="#E6E6E6"/>
<path d="M235.94 187.997C236.277 187.997 236.551 187.861 236.551 187.692C236.551 187.523 236.277 187.387 235.94 187.387C235.602 187.387 235.329 187.523 235.329 187.692C235.329 187.861 235.602 187.997 235.94 187.997Z" fill="#E6E6E6"/>
<path d="M234.497 188.718C234.835 188.718 235.108 188.581 235.108 188.413C235.108 188.244 234.835 188.107 234.497 188.107C234.16 188.107 233.886 188.244 233.886 188.413C233.886 188.581 234.16 188.718 234.497 188.718Z" fill="#E6E6E6"/>
<path d="M228.727 188.718C229.065 188.718 229.338 188.581 229.338 188.413C229.338 188.244 229.065 188.107 228.727 188.107C228.39 188.107 228.116 188.244 228.116 188.413C228.116 188.581 228.39 188.718 228.727 188.718Z" fill="#E6E6E6"/>
<path d="M230.17 187.997C230.507 187.997 230.781 187.861 230.781 187.692C230.781 187.523 230.507 187.387 230.17 187.387C229.832 187.387 229.559 187.523 229.559 187.692C229.559 187.861 229.832 187.997 230.17 187.997Z" fill="#E6E6E6"/>
<path d="M231.612 189.078C231.95 189.078 232.223 188.942 232.223 188.773C232.223 188.604 231.95 188.468 231.612 188.468C231.275 188.468 231.001 188.604 231.001 188.773C231.001 188.942 231.275 189.078 231.612 189.078Z" fill="#E6E6E6"/>
<path d="M8.79877 280V258.416H0.286766V253.4H23.4668V258.416H14.9548V280H8.79877ZM25.9157 280V259.556H31.5777V265.332L30.7797 263.66C31.3877 262.216 32.363 261.127 33.7057 260.392C35.0484 259.632 36.6824 259.252 38.6077 259.252V264.724C38.3544 264.699 38.1264 264.686 37.9237 264.686C37.721 264.661 37.5057 264.648 37.2777 264.648C35.6564 264.648 34.339 265.117 33.3257 266.054C32.3377 266.966 31.8437 268.397 31.8437 270.348V280H25.9157ZM45.4216 287.676C44.3576 287.676 43.3062 287.511 42.2676 287.182C41.2289 286.853 40.3802 286.397 39.7216 285.814L41.8876 281.596C42.3436 282.001 42.8629 282.318 43.4456 282.546C44.0536 282.774 44.6489 282.888 45.2316 282.888C46.0676 282.888 46.7262 282.685 47.2076 282.28C47.7142 281.9 48.1702 281.254 48.5756 280.342L49.6396 277.834L50.0956 277.188L57.4296 259.556H63.1296L53.8956 281.254C53.2369 282.901 52.4769 284.193 51.6156 285.13C50.7796 286.067 49.8422 286.726 48.8036 287.106C47.7902 287.486 46.6629 287.676 45.4216 287.676ZM48.9176 280.798L39.7976 259.556H45.9156L52.9836 276.656L48.9176 280.798ZM77.6325 280.304C75.8338 280.304 74.2885 279.924 72.9965 279.164C71.7045 278.404 70.7165 277.251 70.0325 275.706C69.3485 274.135 69.0065 272.159 69.0065 269.778C69.0065 267.371 69.3612 265.395 70.0705 263.85C70.8052 262.305 71.8185 261.152 73.1105 260.392C74.4025 259.632 75.9098 259.252 77.6325 259.252C79.5578 259.252 81.2805 259.683 82.8005 260.544C84.3458 261.405 85.5618 262.621 86.4485 264.192C87.3605 265.763 87.8165 267.625 87.8165 269.778C87.8165 271.906 87.3605 273.755 86.4485 275.326C85.5618 276.897 84.3458 278.125 82.8005 279.012C81.2805 279.873 79.5578 280.304 77.6325 280.304ZM65.5485 280V251.804H71.4765V263.698L71.0965 269.74L71.2105 275.82V280H65.5485ZM76.6065 275.44C77.5945 275.44 78.4685 275.212 79.2285 274.756C80.0138 274.3 80.6345 273.654 81.0905 272.818C81.5718 271.957 81.8125 270.943 81.8125 269.778C81.8125 268.587 81.5718 267.574 81.0905 266.738C80.6345 265.902 80.0138 265.256 79.2285 264.8C78.4685 264.344 77.5945 264.116 76.6065 264.116C75.6185 264.116 74.7318 264.344 73.9465 264.8C73.1612 265.256 72.5405 265.902 72.0845 266.738C71.6285 267.574 71.4005 268.587 71.4005 269.778C71.4005 270.943 71.6285 271.957 72.0845 272.818C72.5405 273.654 73.1612 274.3 73.9465 274.756C74.7318 275.212 75.6185 275.44 76.6065 275.44ZM101.931 280.304C99.6002 280.304 97.5482 279.848 95.7748 278.936C94.0268 278.024 92.6715 276.783 91.7088 275.212C90.7462 273.616 90.2648 271.805 90.2648 269.778C90.2648 267.726 90.7335 265.915 91.6708 264.344C92.6335 262.748 93.9382 261.507 95.5848 260.62C97.2315 259.708 99.0935 259.252 101.171 259.252C103.172 259.252 104.971 259.683 106.567 260.544C108.188 261.38 109.467 262.596 110.405 264.192C111.342 265.763 111.811 267.65 111.811 269.854C111.811 270.082 111.798 270.348 111.773 270.652C111.747 270.931 111.722 271.197 111.697 271.45H95.0908V267.992H108.581L106.301 269.018C106.301 267.954 106.085 267.029 105.655 266.244C105.224 265.459 104.629 264.851 103.869 264.42C103.109 263.964 102.222 263.736 101.209 263.736C100.195 263.736 99.2962 263.964 98.5108 264.42C97.7508 264.851 97.1555 265.471 96.7248 266.282C96.2942 267.067 96.0788 268.005 96.0788 269.094V270.006C96.0788 271.121 96.3195 272.109 96.8008 272.97C97.3075 273.806 98.0042 274.452 98.8908 274.908C99.8028 275.339 100.867 275.554 102.083 275.554C103.172 275.554 104.122 275.389 104.933 275.06C105.769 274.731 106.529 274.237 107.213 273.578L110.367 276.998C109.429 278.062 108.251 278.885 106.833 279.468C105.414 280.025 103.78 280.304 101.931 280.304ZM126.937 280V253.4H138.451C140.833 253.4 142.885 253.793 144.607 254.578C146.33 255.338 147.66 256.44 148.597 257.884C149.535 259.328 150.003 261.051 150.003 263.052C150.003 265.028 149.535 266.738 148.597 268.182C147.66 269.601 146.33 270.69 144.607 271.45C142.885 272.21 140.833 272.59 138.451 272.59H130.357L133.093 269.892V280H126.937ZM143.847 280L137.197 270.348H143.771L150.497 280H143.847ZM133.093 270.576L130.357 267.688H138.109C140.009 267.688 141.428 267.283 142.365 266.472C143.303 265.636 143.771 264.496 143.771 263.052C143.771 261.583 143.303 260.443 142.365 259.632C141.428 258.821 140.009 258.416 138.109 258.416H130.357L133.093 255.49V270.576ZM164.609 280.304C162.278 280.304 160.226 279.848 158.453 278.936C156.705 278.024 155.349 276.783 154.387 275.212C153.424 273.616 152.943 271.805 152.943 269.778C152.943 267.726 153.411 265.915 154.349 264.344C155.311 262.748 156.616 261.507 158.263 260.62C159.909 259.708 161.771 259.252 163.849 259.252C165.85 259.252 167.649 259.683 169.245 260.544C170.866 261.38 172.145 262.596 173.083 264.192C174.02 265.763 174.489 267.65 174.489 269.854C174.489 270.082 174.476 270.348 174.451 270.652C174.425 270.931 174.4 271.197 174.375 271.45H157.769V267.992H171.259L168.979 269.018C168.979 267.954 168.763 267.029 168.333 266.244C167.902 265.459 167.307 264.851 166.547 264.42C165.787 263.964 164.9 263.736 163.887 263.736C162.873 263.736 161.974 263.964 161.189 264.42C160.429 264.851 159.833 265.471 159.403 266.282C158.972 267.067 158.757 268.005 158.757 269.094V270.006C158.757 271.121 158.997 272.109 159.479 272.97C159.985 273.806 160.682 274.452 161.569 274.908C162.481 275.339 163.545 275.554 164.761 275.554C165.85 275.554 166.8 275.389 167.611 275.06C168.447 274.731 169.207 274.237 169.891 273.578L173.045 276.998C172.107 278.062 170.929 278.885 169.511 279.468C168.092 280.025 166.458 280.304 164.609 280.304ZM188.315 280.304C186.111 280.304 184.148 279.861 182.425 278.974C180.703 278.062 179.347 276.808 178.359 275.212C177.397 273.616 176.915 271.805 176.915 269.778C176.915 267.726 177.397 265.915 178.359 264.344C179.347 262.748 180.703 261.507 182.425 260.62C184.148 259.708 186.111 259.252 188.315 259.252C190.469 259.252 192.343 259.708 193.939 260.62C195.535 261.507 196.713 262.786 197.473 264.458L192.875 266.928C192.343 265.965 191.672 265.256 190.861 264.8C190.076 264.344 189.215 264.116 188.277 264.116C187.264 264.116 186.352 264.344 185.541 264.8C184.731 265.256 184.085 265.902 183.603 266.738C183.147 267.574 182.919 268.587 182.919 269.778C182.919 270.969 183.147 271.982 183.603 272.818C184.085 273.654 184.731 274.3 185.541 274.756C186.352 275.212 187.264 275.44 188.277 275.44C189.215 275.44 190.076 275.225 190.861 274.794C191.672 274.338 192.343 273.616 192.875 272.628L197.473 275.136C196.713 276.783 195.535 278.062 193.939 278.974C192.343 279.861 190.469 280.304 188.315 280.304ZM200.775 280V259.556H206.703V280H200.775ZM203.739 256.706C202.65 256.706 201.763 256.389 201.079 255.756C200.395 255.123 200.053 254.337 200.053 253.4C200.053 252.463 200.395 251.677 201.079 251.044C201.763 250.411 202.65 250.094 203.739 250.094C204.828 250.094 205.715 250.398 206.399 251.006C207.083 251.589 207.425 252.349 207.425 253.286C207.425 254.274 207.083 255.097 206.399 255.756C205.74 256.389 204.854 256.706 203.739 256.706ZM224.289 280.304C222.566 280.304 221.059 279.924 219.767 279.164C218.475 278.404 217.461 277.251 216.727 275.706C216.017 274.135 215.663 272.159 215.663 269.778C215.663 267.371 216.005 265.395 216.689 263.85C217.373 262.305 218.361 261.152 219.653 260.392C220.945 259.632 222.49 259.252 224.289 259.252C226.214 259.252 227.937 259.695 229.457 260.582C231.002 261.443 232.218 262.659 233.105 264.23C234.017 265.801 234.473 267.65 234.473 269.778C234.473 271.931 234.017 273.793 233.105 275.364C232.218 276.935 231.002 278.151 229.457 279.012C227.937 279.873 226.214 280.304 224.289 280.304ZM212.205 287.372V259.556H217.867V263.736L217.753 269.816L218.133 275.858V287.372H212.205ZM223.263 275.44C224.251 275.44 225.125 275.212 225.885 274.756C226.67 274.3 227.291 273.654 227.747 272.818C228.228 271.957 228.469 270.943 228.469 269.778C228.469 268.587 228.228 267.574 227.747 266.738C227.291 265.902 226.67 265.256 225.885 264.8C225.125 264.344 224.251 264.116 223.263 264.116C222.275 264.116 221.388 264.344 220.603 264.8C219.817 265.256 219.197 265.902 218.741 266.738C218.285 267.574 218.057 268.587 218.057 269.778C218.057 270.943 218.285 271.957 218.741 272.818C219.197 273.654 219.817 274.3 220.603 274.756C221.388 275.212 222.275 275.44 223.263 275.44ZM248.587 280.304C246.256 280.304 244.204 279.848 242.431 278.936C240.683 278.024 239.328 276.783 238.365 275.212C237.402 273.616 236.921 271.805 236.921 269.778C236.921 267.726 237.39 265.915 238.327 264.344C239.29 262.748 240.594 261.507 242.241 260.62C243.888 259.708 245.75 259.252 247.827 259.252C249.828 259.252 251.627 259.683 253.223 260.544C254.844 261.38 256.124 262.596 257.061 264.192C257.998 265.763 258.467 267.65 258.467 269.854C258.467 270.082 258.454 270.348 258.429 270.652C258.404 270.931 258.378 271.197 258.353 271.45H241.747V267.992H255.237L252.957 269.018C252.957 267.954 252.742 267.029 252.311 266.244C251.88 265.459 251.285 264.851 250.525 264.42C249.765 263.964 248.878 263.736 247.865 263.736C246.852 263.736 245.952 263.964 245.167 264.42C244.407 264.851 243.812 265.471 243.381 266.282C242.95 267.067 242.735 268.005 242.735 269.094V270.006C242.735 271.121 242.976 272.109 243.457 272.97C243.964 273.806 244.66 274.452 245.547 274.908C246.459 275.339 247.523 275.554 248.739 275.554C249.828 275.554 250.778 275.389 251.589 275.06C252.425 274.731 253.185 274.237 253.869 273.578L257.023 276.998C256.086 278.062 254.908 278.885 253.489 279.468C252.07 280.025 250.436 280.304 248.587 280.304ZM269.292 280.304C267.544 280.304 265.859 280.101 264.238 279.696C262.642 279.265 261.375 278.733 260.438 278.1L262.414 273.844C263.351 274.427 264.453 274.908 265.72 275.288C267.012 275.643 268.278 275.82 269.52 275.82C270.888 275.82 271.85 275.655 272.408 275.326C272.99 274.997 273.282 274.541 273.282 273.958C273.282 273.477 273.054 273.122 272.598 272.894C272.167 272.641 271.584 272.451 270.85 272.324C270.115 272.197 269.304 272.071 268.418 271.944C267.556 271.817 266.682 271.653 265.796 271.45C264.909 271.222 264.098 270.893 263.364 270.462C262.629 270.031 262.034 269.449 261.578 268.714C261.147 267.979 260.932 267.029 260.932 265.864C260.932 264.572 261.299 263.432 262.034 262.444C262.794 261.456 263.883 260.683 265.302 260.126C266.72 259.543 268.418 259.252 270.394 259.252C271.787 259.252 273.206 259.404 274.65 259.708C276.094 260.012 277.297 260.455 278.26 261.038L276.284 265.256C275.296 264.673 274.295 264.281 273.282 264.078C272.294 263.85 271.331 263.736 270.394 263.736C269.076 263.736 268.114 263.913 267.506 264.268C266.898 264.623 266.594 265.079 266.594 265.636C266.594 266.143 266.809 266.523 267.24 266.776C267.696 267.029 268.291 267.232 269.026 267.384C269.76 267.536 270.558 267.675 271.42 267.802C272.306 267.903 273.193 268.068 274.08 268.296C274.966 268.524 275.764 268.853 276.474 269.284C277.208 269.689 277.804 270.259 278.26 270.994C278.716 271.703 278.944 272.641 278.944 273.806C278.944 275.073 278.564 276.2 277.804 277.188C277.044 278.151 275.942 278.911 274.498 279.468C273.079 280.025 271.344 280.304 269.292 280.304Z" fill="#2A2C41"/>
</svg>
