<svg width="30" height="30" viewBox="0 0 30 30" fill="none" xmlns="http://www.w3.org/2000/svg">
<g clip-path="url(#clip0_56606_326)">
<path d="M3.6397 11.3603C0.772056 8.49265 0.772056 3.97059 3.6397 1.10294L15.8823 13.3456L19.9632 17.4265L26.25 23.7132C27.3529 24.8162 27.3529 26.4706 26.25 27.5735C25.1471 28.6765 23.1618 28.6765 22.1691 27.3529L17.6471 21.7279C16.5441 20.2941 14.5588 19.8529 12.7941 20.5147L3.6397 11.3603Z" stroke="white" stroke-width="2" stroke-miterlimit="10" stroke-linecap="round" stroke-linejoin="round"/>
<path d="M19.9632 9.81618L25.9191 3.86029" stroke="white" stroke-width="2" stroke-miterlimit="10" stroke-linecap="round" stroke-linejoin="round"/>
<path d="M17.5368 15C17.9779 14.8897 18.3088 14.8897 18.75 14.7794C20.1838 14.6691 21.8382 13.8971 23.4926 12.2426L28.8971 6.83823" stroke="white" stroke-width="2" stroke-miterlimit="10" stroke-linecap="round" stroke-linejoin="round"/>
<path d="M10.0368 17.7574L2.31618 24.0441C1.10294 24.9265 0.992651 26.6912 2.09559 27.6838C3.19853 28.7868 4.85294 28.5662 5.7353 27.4632L12.0221 19.6324" stroke="white" stroke-width="2" stroke-miterlimit="10" stroke-linecap="round" stroke-linejoin="round"/>
<path d="M22.9412 0.882355L17.4265 6.28677C15.7721 7.94118 14.8897 9.59559 14.8897 11.0294C14.8897 11.4706 14.7794 11.8015 14.6691 12.2427" stroke="white" stroke-width="2" stroke-miterlimit="10" stroke-linecap="round" stroke-linejoin="round"/>
</g>
<defs>
<clipPath id="clip0_56606_326">
<rect width="30" height="30" fill="white"/>
</clipPath>
</defs>
</svg>
