<svg width="24" height="24" viewBox="0 0 24 24" fill="none" xmlns="http://www.w3.org/2000/svg">
<path d="M23.2787 21.2284L17.4155 15.3652C18.5302 13.834 19.1955 11.9548 19.1955 9.9155C19.1955 4.79004 15.0409 0.635498 9.91548 0.635498C4.79002 0.635498 0.635483 4.79004 0.635483 9.9155C0.635483 15.041 4.79002 19.1955 9.91548 19.1955C11.9548 19.1955 13.834 18.5302 15.3652 17.4155L21.2284 23.2787L23.2787 21.2284ZM9.91548 16.2955C6.39778 16.2955 3.53548 13.4332 3.53548 9.9155C3.53548 6.3978 6.39778 3.5355 9.91548 3.5355C13.4332 3.5355 16.2955 6.3978 16.2955 9.9155C16.2955 13.4332 13.4332 16.2955 9.91548 16.2955Z" fill="white"/>
</svg>
