<svg width="28" height="28" viewBox="0 0 28 28" fill="none" xmlns="http://www.w3.org/2000/svg">
<g clip-path="url(#clip0_56606_1046)">
<path d="M22.9688 17.9375C21.8178 17.9373 20.7016 18.3318 19.8063 19.0551C18.911 19.7785 18.2908 20.7869 18.0491 21.9122L9.13064 16.9072C9.73192 16.0574 10.0548 15.042 10.0548 14.0011C10.0548 12.9601 9.73192 11.9447 9.13064 11.095L18.0491 6.08779C18.3156 7.33084 19.0428 8.4269 20.0846 9.15562C21.1263 9.88434 22.4052 10.1917 23.6643 10.0159C24.9234 9.84004 26.0693 9.19409 26.8715 8.20787C27.6737 7.22166 28.0729 5.96831 27.9887 4.69979C27.9045 3.43128 27.3433 2.24167 26.4177 1.37012C25.4922 0.498565 24.271 0.00970014 22.9998 0.00180609C21.7285 -0.00608795 20.5013 0.467574 19.5651 1.32756C18.6288 2.18755 18.0528 3.37011 17.9528 4.63748L8.21189 10.1062C7.4746 9.50374 6.58147 9.12284 5.63629 9.00778C4.69112 8.89272 3.73269 9.04823 2.87238 9.45624C2.01208 9.86425 1.28521 10.508 0.776231 11.3127C0.267255 12.1174 -0.00292969 13.05 -0.00292969 14.0022C-0.00292969 14.9543 0.267255 15.8869 0.776231 16.6916C1.28521 17.4963 2.01208 18.1401 2.87238 18.5481C3.73269 18.9561 4.69112 19.1116 5.63629 18.9965C6.58147 18.8815 7.4746 18.5006 8.21189 17.8981L17.9528 23.3668C18.0302 24.3419 18.3902 25.2732 18.9886 26.0469C19.587 26.8206 20.3979 27.4031 21.3222 27.7231C22.2465 28.0431 23.244 28.0867 24.1927 27.8487C25.1414 27.6107 26.0001 27.1013 26.6639 26.3829C27.3276 25.6644 27.7675 24.7681 27.9298 23.8036C28.0921 22.839 27.9697 21.8481 27.5777 20.952C27.1856 20.0559 26.5409 19.2935 25.7223 18.7581C24.9037 18.2228 23.9469 17.9376 22.9688 17.9375ZM22.9688 1.31247C23.7043 1.31247 24.4232 1.53058 25.0348 1.9392C25.6463 2.34782 26.123 2.92861 26.4044 3.60812C26.6859 4.28763 26.7596 5.03535 26.6161 5.75672C26.4726 6.47808 26.1184 7.1407 25.5983 7.66078C25.0782 8.18085 24.4156 8.53503 23.6943 8.67852C22.9729 8.82201 22.2252 8.74837 21.5457 8.4669C20.8661 8.18544 20.2854 7.7088 19.8767 7.09725C19.4681 6.48571 19.25 5.76672 19.25 5.03123C19.25 4.04495 19.6418 3.09907 20.3392 2.40167C21.0366 1.70427 21.9825 1.31247 22.9688 1.31247ZM2.40627 16.625C1.77626 15.9161 1.4409 14.9932 1.46881 14.0452C1.49672 13.0972 1.88577 12.1957 2.5564 11.5251C3.22702 10.8545 4.12853 10.4654 5.07653 10.4375C6.02452 10.4096 6.94736 10.745 7.65627 11.375C8.28628 12.0839 8.62164 13.0067 8.59373 13.9547C8.56582 14.9027 8.17677 15.8042 7.50614 16.4748C6.83552 17.1455 5.93401 17.5345 4.98601 17.5624C4.03802 17.5903 3.11518 17.255 2.40627 16.625ZM22.9688 26.6875C22.2333 26.6875 21.5143 26.4694 20.9027 26.0608C20.2912 25.6521 19.8146 25.0713 19.5331 24.3918C19.2516 23.7123 19.178 22.9646 19.3215 22.2432C19.465 21.5219 19.8191 20.8592 20.3392 20.3392C20.8593 19.8191 21.5219 19.4649 22.2433 19.3214C22.9646 19.1779 23.7124 19.2516 24.3919 19.533C25.0714 19.8145 25.6522 20.2912 26.0608 20.9027C26.4694 21.5142 26.6875 22.2332 26.6875 22.9687C26.6875 23.955 26.2957 24.9009 25.5983 25.5983C24.9009 26.2957 23.955 26.6875 22.9688 26.6875Z" fill="#2F2E41"/>
</g>
<defs>
<clipPath id="clip0_56606_1046">
<rect width="28" height="28" fill="white"/>
</clipPath>
</defs>
</svg>
